<svg width="108" height="58" viewBox="0 0 108 58" fill="none" xmlns="http://www.w3.org/2000/svg">
<path d="M94.7078 20.6406C98.9012 17.9491 104.265 19.5477 106.689 24.2077C107.565 25.8959 105.811 22.5196 106.689 24.2077C109.111 28.8697 107.672 34.8308 103.477 37.5224C95.9826 42.3324 81.0945 51.8827 73.6 56.6928C69.4049 59.3843 64.0407 57.7858 61.6187 53.1257C60.7414 51.4376 62.4964 54.8138 61.6187 53.1257C59.1971 48.4637 60.6352 42.5026 64.8286 39.8111C72.3235 35.001 87.2116 25.4487 94.7078 20.6406Z" fill="#FBBC04"/>
<path d="M103.612 20.7267C107.807 23.4178 109.246 29.3788 106.824 34.0413C105.946 35.7295 107.699 32.3527 106.824 34.0413C104.402 38.7034 99.036 40.3015 94.8426 37.6084C87.3481 32.8003 72.4601 23.2476 64.9638 18.4395C60.77 15.7484 59.3319 9.78737 61.7539 5.12536C62.6312 3.43675 60.8762 6.81348 61.7539 5.12536C64.1755 0.462855 69.5396 -1.1333 73.7348 1.55776C81.2293 6.36586 96.1173 15.9186 103.612 20.7267Z" fill="#0F9D58"/>
<path d="M34.2647 1.30692C38.4598 -1.38414 43.824 0.21396 46.2456 4.87597C47.1233 6.56459 45.3683 3.18785 46.2456 4.87597C48.6676 9.53651 47.2308 15.4995 43.0357 18.1906C35.5412 22.9987 20.6531 32.5515 13.1586 37.3596C8.96302 40.0506 3.59888 38.4545 1.17729 33.792C0.300009 32.1039 2.05324 35.4806 1.17729 33.792C-1.24607 29.13 0.192002 23.1689 4.38718 20.4778C11.8817 15.6678 26.7697 6.11699 34.2647 1.30692Z" fill="#9B51E0"/>
<path d="M34.2647 1.30692C38.4598 -1.38414 43.824 0.21396 46.2456 4.87597C47.1233 6.56459 45.3683 3.18785 46.2456 4.87597C48.6676 9.53651 47.2308 15.4995 43.0357 18.1906C35.5412 22.9987 20.6531 32.5515 13.1586 37.3596C8.96302 40.0506 3.59888 38.4545 1.17729 33.792C0.300009 32.1039 2.05324 35.4806 1.17729 33.792C-1.24607 29.13 0.192002 23.1689 4.38718 20.4778C11.8817 15.6678 26.7697 6.11699 34.2647 1.30692Z" fill="#9B51E0"/>
<path d="M43.0357 39.6596C47.2308 42.3526 48.6676 48.3137 46.2456 52.9742C45.3683 54.6623 47.1233 51.2861 46.2456 52.9742C43.824 57.6362 38.4598 59.2344 34.2647 56.5433C26.7697 51.7332 11.8817 42.1824 4.38718 37.3724C0.192002 34.6813 -1.24607 28.7203 1.17729 24.0582C2.05324 22.3701 0.300009 25.7464 1.17729 24.0582C3.59888 19.3962 8.96302 17.7996 13.1586 20.4906C20.6531 25.2987 35.5412 34.8515 43.0357 39.6596Z" fill="#4285F4"/>
</svg>
