<svg width="80" height="120" viewBox="0 0 80 120" fill="none" xmlns="http://www.w3.org/2000/svg">
<path d="M0 20C0 8.95431 8.95431 0 20 0H40V40H20C8.95431 40 0 31.0457 0 20V20Z" fill="url(#paint0_linear)"/>
<path d="M0 60C0 48.9543 8.95431 40 20 40H40V80H20C8.95431 80 0 71.0457 0 60V60Z" fill="url(#paint1_linear)"/>
<path d="M0 100C0 88.9543 8.95431 80 20 80H40V120H20C8.95431 120 0 111.046 0 100V100Z" fill="url(#paint2_linear)"/>
<path d="M80 20C80 31.0457 71.0457 40 60 40H40V0H60C71.0457 0 80 8.95431 80 20V20Z" fill="#2D9CDB"/>
<path d="M80 100C80 111.046 71.0457 120 60 120H40V80H60C71.0457 80 80 88.9543 80 100V100Z" fill="url(#paint3_linear)"/>
<circle cx="60" cy="60" r="20" fill="#56CCF2"/>
<defs>
<linearGradient id="paint0_linear" x1="0" y1="0" x2="48.0883" y2="23.3235" gradientUnits="userSpaceOnUse">
<stop stop-color="#14F1D9"/>
<stop offset="1" stop-color="#3672F8"/>
</linearGradient>
<linearGradient id="paint1_linear" x1="0" y1="40" x2="48.0883" y2="63.3235" gradientUnits="userSpaceOnUse">
<stop stop-color="#14F1D9"/>
<stop offset="1" stop-color="#3672F8"/>
</linearGradient>
<linearGradient id="paint2_linear" x1="0" y1="80" x2="48.0883" y2="103.323" gradientUnits="userSpaceOnUse">
<stop stop-color="#14F1D9"/>
<stop offset="1" stop-color="#3672F8"/>
</linearGradient>
<linearGradient id="paint3_linear" x1="80" y1="120" x2="31.9117" y2="96.6765" gradientUnits="userSpaceOnUse">
<stop stop-color="#14F1D9"/>
<stop offset="1" stop-color="#3672F8"/>
</linearGradient>
</defs>
</svg>
