<svg xmlns="http://www.w3.org/2000/svg" width="106" height="32" fill="none" viewBox="0 0 106 32">
  <g opacity=".8">
    <path fill="none" d="M0 0h105.873v31.912H0z"/>
    <path fill="#C6D0EB" fill-rule="evenodd" d="M65.682 24.956c-6.153 4.536-15.07 6.956-22.748 6.956-10.766 0-20.458-3.983-27.79-10.607-.576-.52-.06-1.23.631-.825 7.913 4.605 17.697 7.375 27.804 7.375 6.816 0 14.314-1.41 21.209-4.337 1.041-.443 1.912.682.894 1.438z" clip-rule="evenodd"/>
    <path fill="#C6D0EB" fill-rule="evenodd" d="M68.24 22.03c-.784-1.006-5.199-.476-7.18-.24-.604.073-.697-.452-.153-.83 3.517-2.476 9.287-1.761 9.96-.931.672.834-.176 6.619-3.48 9.38-.507.424-.99.198-.765-.364.742-1.853 2.406-6.006 1.618-7.016zM61.198 3.485V1.079c0-.364.276-.609.608-.609h10.77c.346 0 .622.25.622.609v2.06c-.004.346-.295.798-.81 1.512l-5.582 7.97c2.074-.05 4.263.258 6.144 1.318.424.24.539.59.571.936v2.568c0 .35-.387.76-.793.548-3.313-1.738-7.715-1.927-11.378.019-.374.202-.765-.203-.765-.554v-2.438c0-.392.004-1.06.396-1.655l6.466-9.274H61.82c-.346 0-.622-.245-.622-.604zM21.91 18.498h-3.277a.619.619 0 0 1-.586-.558V1.12c0-.336.281-.604.632-.604h3.055a.617.617 0 0 1 .595.563v2.198h.06c.797-2.125 2.295-3.116 4.313-3.116 2.051 0 3.332.991 4.254 3.116.793-2.125 2.595-3.116 4.526-3.116 1.373 0 2.875.567 3.793 1.84 1.036 1.415.824 3.47.824 5.273l-.004 10.616a.619.619 0 0 1-.632.608h-3.272a.623.623 0 0 1-.59-.608V8.975c0-.71.065-2.48-.092-3.153-.244-1.13-.977-1.447-1.926-1.447-.793 0-1.622.53-1.959 1.378-.336.848-.304 2.268-.304 3.222v8.915a.619.619 0 0 1-.631.608h-3.272a.62.62 0 0 1-.59-.608l-.005-8.915c0-1.876.309-4.637-2.018-4.637-2.355 0-2.263 2.692-2.263 4.637v8.915a.619.619 0 0 1-.632.608zM82.47.161c4.863 0 7.495 4.177 7.495 9.487 0 5.13-2.909 9.2-7.494 9.2-4.775 0-7.374-4.176-7.374-9.38 0-5.236 2.632-9.307 7.374-9.307zm.029 3.434c-2.415 0-2.567 3.292-2.567 5.343 0 2.056-.033 6.444 2.539 6.444 2.54 0 2.659-3.54 2.659-5.697 0-1.42-.06-3.116-.489-4.462-.368-1.171-1.1-1.628-2.142-1.628zM96.269 18.498h-3.263a.623.623 0 0 1-.59-.608l-.004-16.825a.62.62 0 0 1 .631-.549h3.037c.286.014.52.208.585.47V3.56h.06c.917-2.3 2.203-3.398 4.466-3.398 1.47 0 2.903.53 3.825 1.982.857 1.346.857 3.61.857 5.237v10.588c-.037.295-.308.53-.631.53h-3.286c-.3-.023-.548-.244-.581-.53V8.832c0-1.84.212-4.531-2.05-4.531-.798 0-1.53.534-1.895 1.346-.46 1.028-.52 2.051-.52 3.185v9.058a.63.63 0 0 1-.641.608M52.612 10.464c0 1.277.032 2.341-.613 3.475-.52.922-1.35 1.49-2.268 1.49-1.258 0-1.995-.96-1.995-2.375 0-2.793 2.502-3.3 4.876-3.3v.71zm3.304 7.988a.684.684 0 0 1-.774.078c-1.088-.903-1.286-1.323-1.88-2.184-1.798 1.834-3.074 2.383-5.402 2.383-2.76 0-4.903-1.701-4.903-5.108 0-2.66 1.438-4.471 3.493-5.356 1.779-.784 4.263-.922 6.162-1.139v-.424c0-.779.06-1.7-.401-2.374-.396-.603-1.161-.852-1.839-.852-1.249 0-2.36.64-2.632 1.968-.055.295-.271.585-.571.6l-3.175-.342c-.268-.06-.567-.277-.489-.687C44.233 1.162 47.717 0 50.833 0c1.594 0 3.678.424 4.936 1.632 1.594 1.489 1.442 3.475 1.442 5.637v5.108c0 1.535.636 2.208 1.235 3.037.208.295.254.65-.014.872-.668.557-1.857 1.595-2.511 2.175l-.005-.009zM9.655 10.464c0 1.277.032 2.341-.613 3.475-.52.922-1.346 1.49-2.267 1.49-1.259 0-1.991-.96-1.991-2.375 0-2.793 2.502-3.3 4.871-3.3v.71zm3.304 7.988a.684.684 0 0 1-.774.078c-1.088-.903-1.281-1.323-1.88-2.184-1.798 1.834-3.07 2.383-5.401 2.383C2.148 18.729 0 17.028 0 13.62c0-2.66 1.442-4.471 3.493-5.356 1.78-.784 4.263-.922 6.162-1.139v-.424c0-.779.06-1.7-.396-2.374-.401-.603-1.166-.852-1.84-.852-1.248 0-2.363.64-2.635 1.968-.056.295-.272.585-.567.6l-3.18-.342c-.267-.06-.562-.277-.489-.687C1.281 1.162 4.761 0 7.876 0c1.595 0 3.678.424 4.936 1.632 1.595 1.489 1.442 3.475 1.442 5.637v5.108c0 1.535.636 2.208 1.236 3.037.211.295.258.65-.01.872-.668.557-1.857 1.595-2.511 2.175l-.01-.009z" clip-rule="evenodd"/>
  </g>
</svg>
