<svg xmlns="http://www.w3.org/2000/svg" width="125" height="25" fill="none" viewBox="0 0 125 25">
  <g opacity=".8">
    <path fill="none" d="M0 0h124.791v24.162H0z"/>
    <path fill="#C6D0EB" fill-rule="evenodd" d="M9.763 3.787c-1.468 0-1.894.653-1.894 2.09V8.26h3.919l-.392 3.854H7.869v11.69H3.167v-11.69H0V8.26h3.167V5.942C3.167 2.057 4.734 0 9.11 0c.947 0 2.057.065 2.742.162v3.625M16.816 16.587c0 2.318.85 3.852 3.037 3.852 1.927 0 2.907-1.404 2.907-3.623v-1.568c0-2.221-.98-3.625-2.907-3.625-2.187 0-3.037 1.536-3.037 3.854v1.11zm-4.702-1.045c0-4.343 2.057-7.609 6.368-7.609 2.35 0 3.787 1.21 4.473 2.71V8.26h4.507v15.542h-4.508v-2.349c-.653 1.501-2.121 2.676-4.472 2.676-4.31 0-6.368-3.264-6.368-7.607v-.98zM37.255 7.933c1.828 0 3.56.392 4.506 1.045l-1.045 3.33c-.718-.358-1.893-.717-3.134-.717-2.548 0-3.657 1.469-3.657 3.984v.913c0 2.515 1.11 3.983 3.657 3.983 1.241 0 2.416-.358 3.134-.718l1.045 3.331c-.946.653-2.678 1.045-4.506 1.045-5.517 0-8.032-2.972-8.032-7.739v-.718c0-4.767 2.515-7.739 8.032-7.739zM47.084 14.595h5.681v-.391c0-1.698-.685-3.037-2.742-3.037-2.124 0-2.94 1.339-2.94 3.428zm-4.703 2.024v-1.37c0-4.409 2.514-7.316 7.642-7.316 4.831 0 6.953 2.94 6.953 7.25v2.481h-9.892c.097 2.124 1.044 3.07 3.657 3.07 1.763 0 3.625-.36 4.996-.946l.848 3.231c-1.24.653-3.787 1.143-6.041 1.143-5.941 0-8.163-2.97-8.163-7.543zM69.711 15.443c0-2.189-.85-3.82-3.101-3.82-1.927 0-2.972 1.372-2.972 3.59v1.634c0 2.221 1.045 3.592 2.972 3.592 2.251 0 3.101-1.633 3.101-3.822v-1.174zm4.702 1.077c0 4.343-2.09 7.609-6.4 7.609-2.35 0-3.983-1.177-4.637-2.678v2.351h-4.44V.454l4.702-.423v10.383c.686-1.37 2.187-2.48 4.375-2.48 4.31 0 6.4 3.264 6.4 7.606v.98zM86.755 15.313c0-2.057-.85-3.69-3.037-3.69-2.189 0-3.037 1.633-3.037 3.69v1.436c0 2.057.849 3.69 3.037 3.69 2.187 0 3.037-1.633 3.037-3.69v-1.436zm-10.776 1.11v-.783c0-4.473 2.546-7.707 7.74-7.707 5.19 0 7.738 3.234 7.738 7.707v.783c0 4.474-2.548 7.706-7.739 7.706-5.193 0-7.739-3.232-7.739-7.706zM103.798 15.313c0-2.057-.85-3.69-3.036-3.69-2.19 0-3.037 1.633-3.037 3.69v1.436c0 2.057.848 3.69 3.037 3.69 2.186 0 3.036-1.633 3.036-3.69v-1.436zm-10.775 1.11v-.783c0-4.473 2.546-7.707 7.739-7.707 5.191 0 7.738 3.234 7.738 7.707v.783c0 4.474-2.547 7.706-7.738 7.706-5.193 0-7.74-3.232-7.74-7.706zM114.963 15.672L119.6 8.26h4.996l-4.866 7.674 5.061 7.868h-4.994l-4.834-7.607v7.607h-4.702V.456l4.702-.425" clip-rule="evenodd"/>
  </g>
</svg>
