<svg xmlns="http://www.w3.org/2000/svg" width="111" height="37" fill="none" viewBox="0 0 111 37">
  <path fill="none" d="M0 0h111v37H0z"/>
  <path fill="#C6D0EB" d="M47.502 19.471c0 5.323-4.113 9.246-9.16 9.246s-9.16-3.923-9.16-9.246c0-5.36 4.113-9.246 9.16-9.246s9.16 3.885 9.16 9.246zm-4.01 0c0-3.326-2.384-5.602-5.15-5.602-2.766 0-5.15 2.276-5.15 5.602 0 3.293 2.384 5.603 5.15 5.603 2.766 0 5.15-2.314 5.15-5.603zM67.261 19.471c0 5.323-4.112 9.246-9.16 9.246-5.046 0-9.159-3.923-9.159-9.246 0-5.356 4.113-9.246 9.16-9.246s9.16 3.885 9.16 9.246zm-4.01 0c0-3.326-2.383-5.602-5.15-5.602-2.766 0-5.15 2.276-5.15 5.602 0 3.293 2.384 5.603 5.15 5.603 2.767 0 5.15-2.314 5.15-5.603zM86.198 10.784v16.6C86.198 34.21 82.22 37 77.52 37c-4.426 0-7.09-2.997-8.094-5.448l3.491-1.472c.622 1.505 2.145 3.28 4.599 3.28 3.009 0 4.874-1.88 4.874-5.418v-1.33h-.14c-.898 1.121-2.627 2.1-4.808 2.1-4.566 0-8.748-4.026-8.748-9.207 0-5.22 4.182-9.28 8.748-9.28 2.177 0 3.906.98 4.808 2.068h.14v-1.505h3.808v-.004zm-3.524 8.72c0-3.255-2.145-5.635-4.874-5.635-2.767 0-5.084 2.38-5.084 5.636 0 3.222 2.317 5.569 5.084 5.569 2.729 0 4.874-2.347 4.874-5.57zM92.475 1.055V28.15h-3.91V1.055h3.91zM107.715 22.514l3.112 2.101c-1.004 1.505-3.425 4.098-7.607 4.098-5.187 0-9.061-4.06-9.061-9.246 0-5.498 3.907-9.246 8.612-9.246 4.738 0 7.056 3.819 7.813 5.882l.416 1.05-12.206 5.12c.935 1.855 2.388 2.8 4.426 2.8 2.041 0 3.458-1.016 4.495-2.559zm-9.58-3.326l8.16-3.431c-.449-1.155-1.799-1.96-3.388-1.96-2.038 0-4.874 1.822-4.771 5.39zM14.38 17.066v-3.923h13.053c.128.684.194 1.493.194 2.368 0 2.943-.795 6.582-3.355 9.175-2.491 2.626-5.673 4.027-9.889 4.027C6.57 28.713 0 22.268 0 14.356 0 6.446 6.57 0 14.383 0c4.323 0 7.402 1.717 9.716 3.956l-2.734 2.768c-1.659-1.576-3.906-2.801-6.986-2.801-5.705 0-10.168 4.656-10.168 10.434 0 5.777 4.463 10.433 10.168 10.433 3.701 0 5.809-1.505 7.159-2.872 1.095-1.109 1.816-2.693 2.1-4.856l-9.259.004z"/>
</svg>
