<svg xmlns="http://www.w3.org/2000/svg" width="132" height="32" fill="none" viewBox="0 0 132 32">
  <path fill="none" d="M0 0h132v32H0z"/>
  <path fill="none" d="M0 0h132v32H0z"/>
  <path fill="none" d="M0 0h132v32H0z"/>
  <path fill="none" d="M42.554 5.255H132v25.784H42.554z"/>
  <path fill="#C6D0EB" d="M65.979 10.925c-1.305.037-2.55.563-3.572 1.353-.365.26-.81.688-1.051 1.077-.523.714-.967 1.476-1.218 2.328-.725 2.38-.596 5.075.564 7.297.45.79.934 1.476 1.648 2.062.58.358 1.252.83 1.97 1.016 1.96.62 4.234.3 5.873-.96.41-.253.785-.741 1.115-1.147-.024-.106.314-.543.34-.203 0 2.42.002 4.862 0 7.29h2.212V11.263h-2.211v2.632c-.396-.577-.746-1.21-1.304-1.58-1.22-.973-2.796-1.513-4.366-1.39zm.775 1.992c1.015-.002 2.167.283 2.891.921.578.466 1.01.958 1.323 1.642.826 1.768.9 3.87.254 5.706-.29.887-.847 1.638-1.577 2.22-1.074.914-2.63 1.067-3.99.832-.9-.154-1.663-.666-2.24-1.347-1.076-1.175-1.383-2.875-1.364-4.432.054-1.351.316-2.77 1.15-3.869.561-.69 1.296-1.288 2.196-1.5.437-.14.899-.186 1.357-.173zM49.736 5.267c-1.683.067-3.396.505-4.744 1.54-.277.184-.583.514-.774.8-.823 1.034-1.244 2.377-1.113 3.697.048.96.404 1.894 1.055 2.61.191.285.56.61.859.797 1.74 1.346 4.005 1.596 6.06 2.208 1.283.389 2.768.652 3.608 1.788.711.864.692 2.162.303 3.177-.333.83-1.06 1.425-1.834 1.842-1.621.698-3.5.652-5.178.185a6.484 6.484 0 0 1-3.206-2.168c-.21-.34-.396-.56-.725-.166l-1.493 1.04c.4.624.872 1.224 1.436 1.654.965.734 2.012 1.384 3.2 1.688 2.221.659 4.688.59 6.836-.297.867-.45 1.695-.905 2.308-1.661a5.76 5.76 0 0 0 1.328-3.516c.065-1.223-.332-2.465-1.142-3.395a2.168 2.168 0 0 0-.7-.643c-.404-.358-.862-.582-1.358-.848-2.21-1.1-4.731-1.338-6.99-2.3-.691-.341-1.384-.815-1.743-1.51-.538-1.186-.119-2.688.934-3.441.92-.733 2.183-.949 3.349-.957 2.024-.02 4.077.857 5.299 2.481l1.814-1.353c-.53-.735-1.194-1.304-1.92-1.79a9.213 9.213 0 0 0-5.47-1.462zM77.592 20.85c.002 1.291.266 2.633 1.058 3.684.347.56 1.03 1.006 1.637 1.335 1.588.73 3.493.62 5.064-.097.716-.385 1.404-.865 1.86-1.482.21-.192.446-.738.568-.767v2.496h2.21V11.263h-2.21c-.016 3.014.035 6.03-.038 9.042-.179 1.213-.733 2.384-1.739 3.12-1.22.924-2.986 1.149-4.422.583-1.007-.45-1.58-1.548-1.651-2.627-.174-1.887-.051-3.786-.088-5.678v-4.44h-2.25v9.587zM99.07 10.925a9.968 9.968 0 0 0-5.386 1.785l.964 1.617c1.303-.995 2.98-1.402 4.6-1.466 1.18-.016 2.57.208 3.249 1.25.387.706.299 1.72-.365 2.227-.556.531-1.5.75-2.306.902-1.528.28-3.131.34-4.566.984-.645.3-1.243.741-1.614 1.31-.793.977-.848 2.334-.613 3.519.134.668.479 1.252.897 1.782.219.324.654.541 1.02.808 1.382.785 3.08.85 4.616.554a5.417 5.417 0 0 0 2.392-1.254c.341-.22.407-.588.703-.804.284.077.063.53.132.752v1.128h2.136c-.016-3.828.037-7.658-.038-11.485-.173-1.05-.734-2.136-1.656-2.647-1.207-.787-2.738-1.043-4.165-.963zm3.648 6.955c-.062 1.54.251 3.204-.523 4.619-.637 1.149-1.901 1.827-3.204 1.927-1.155.096-2.502-.048-3.285-.982-.557-.677-.664-1.706-.393-2.537.207-.722.856-1.168 1.546-1.394 1.628-.556 3.402-.56 5.008-1.182.319-.176.611-.342.851-.583v.132zM115.125 10.981a5.32 5.32 0 0 0-3.153 1.395c-.359.393-.694.886-1.005 1.368v-2.481h-2.212v14.756h2.212c.02-2.877-.047-5.757.046-8.631.172-1.392.757-2.81 1.947-3.625 1.063-.795 2.584-.856 3.809-.376.262-.133.157-.584.296-.84l.29-1.096c-.669-.384-1.467-.515-2.23-.47zM124.791 10.925c-1.293.022-2.54.48-3.61 1.184-.215.163-.472.35-.704.55-.554.533-.971 1.189-1.375 1.875-1.093 2.146-1.217 4.722-.529 7.013.301 1.05.939 2.024 1.621 2.805.278.284.583.52.855.709 1.127.809 2.496 1.245 3.885 1.287 1.848.102 3.783-.332 5.226-1.53a5.46 5.46 0 0 0 1.189-1.11l-1.493-1.354a5.092 5.092 0 0 1-3.121 1.873c-1.712.33-3.699-.032-4.884-1.376-.995-.952-1.319-2.41-1.35-3.75.209-.339.735-.054 1.081-.15h10.353c.249-1.998-.211-4.12-1.486-5.71-.306-.471-.8-.812-1.274-1.15-1.249-.885-2.863-1.26-4.384-1.166zm.794 1.88c1.475.087 2.903.91 3.588 2.217.324.696.516 1.467.532 2.237h-9.185c.143-1.08.402-2.244 1.209-3.026.145-.247.547-.49.781-.725.9-.583 2.013-.778 3.075-.703zM26.812 0H5.362C2.415 0 0 2.4 0 5.334v21.334C0 29.6 2.414 32 5.363 32h21.449c2.949 0 5.363-2.4 5.363-5.332V5.334C32.175 2.4 29.76 0 26.812 0zm-.488 24.487c0 .933-.767 1.694-1.705 1.694H7.555a1.704 1.704 0 0 1-1.706-1.694V7.515c0-.932.768-1.696 1.706-1.696h17.064c.938 0 1.706.764 1.706 1.696v16.972zm-5.848-5.093c0 .535-.439.97-.974.97h-6.824a.973.973 0 0 1-.974-.97v-6.787c0-.534.437-.97.974-.97h6.824c.535 0 .974.436.974.97v6.787z"/>
</svg>
