<svg xmlns="http://www.w3.org/2000/svg" width="135" height="43" fill="none" viewBox="0 0 135 43">
  <path fill="none" d="M0 0h135v43H0z"/>
  <path fill="#C6D0EB" d="M71.15 10.804c0 1.55-1.223 2.798-2.742 2.798-1.518 0-2.74-1.249-2.74-2.798 0-1.55 1.18-2.798 2.74-2.798a2.792 2.792 0 0 1 2.742 2.798zm-11.303 5.638v.69s-1.307-1.723-4.09-1.723c-4.597 0-8.182 3.573-8.182 8.523 0 4.907 3.542 8.523 8.181 8.523 2.826 0 4.091-1.765 4.091-1.765v.731c0 .345.253.603.59.603h3.417V15.84h-3.416c-.338 0-.59.301-.59.602zm0 10.374c-.632.947-1.898 1.765-3.416 1.765-2.699 0-4.765-1.722-4.765-4.65 0-2.926 2.066-4.648 4.765-4.648 1.476 0 2.826.861 3.416 1.765v5.768zm6.537-10.976h4.049v16.184h-4.049V15.84zm60.477-.43c-2.784 0-4.091 1.721-4.091 1.721V8.05h-4.049v23.975h3.416c.338 0 .591-.301.591-.603v-.731s1.307 1.765 4.09 1.765c4.597 0 8.182-3.616 8.182-8.523s-3.585-8.523-8.139-8.523zm-.675 13.128c-1.561 0-2.784-.818-3.416-1.765v-5.768c.632-.86 1.982-1.765 3.416-1.765 2.699 0 4.765 1.722 4.765 4.649s-2.066 4.649-4.765 4.649zm-9.574-6.113v9.642h-4.048V22.9c0-2.669-.844-3.745-3.121-3.745-1.223 0-2.488.646-3.289 1.593v11.277h-4.049V15.84h3.205c.337 0 .59.301.59.602v.69c1.181-1.25 2.742-1.723 4.302-1.723 1.771 0 3.247.517 4.428 1.55 1.434 1.205 1.982 2.755 1.982 5.466zM92.278 15.41c-2.783 0-4.09 1.722-4.09 1.722V8.05h-4.049v23.975h3.416c.337 0 .59-.301.59-.603v-.731s1.308 1.765 4.091 1.765c4.597 0 8.182-3.616 8.182-8.523.042-4.907-3.543-8.523-8.14-8.523zm-.674 13.129c-1.56 0-2.784-.818-3.416-1.765v-5.768c.632-.86 1.982-1.765 3.416-1.765 2.699 0 4.765 1.722 4.765 4.649s-2.066 4.649-4.765 4.649zM80.639 15.409c1.223 0 1.855.216 1.855.216v3.83s-3.373-1.162-5.482 1.292v11.32h-4.049V15.84h3.416c.338 0 .59.301.59.602v.69c.76-.905 2.405-1.723 3.67-1.723zM38.592 30.561c-.21-.517-.422-1.076-.633-1.55-.337-.775-.674-1.506-.97-2.195l-.042-.043a453.292 453.292 0 0 0-9.32-19.456L27.5 7.06c-.337-.646-.674-1.334-1.012-2.023-.421-.775-.843-1.593-1.518-2.367C23.62.947 21.68 0 19.614 0c-2.109 0-4.006.947-5.398 2.583-.633.774-1.097 1.592-1.518 2.367a88.538 88.538 0 0 1-1.013 2.023l-.126.258c-3.247 6.457-6.41 13-9.32 19.456l-.042.086c-.296.689-.633 1.42-.97 2.195-.211.473-.422.99-.633 1.55-.548 1.592-.717 3.099-.506 4.648.464 3.228 2.572 5.94 5.482 7.145A8.509 8.509 0 0 0 8.986 43c.338 0 .76-.043 1.097-.086 1.392-.172 2.825-.646 4.217-1.464 1.73-.99 3.374-2.41 5.23-4.476 1.855 2.066 3.542 3.487 5.23 4.477 1.39.817 2.825 1.29 4.216 1.463.338.043.76.086 1.097.086 1.18 0 2.362-.215 3.416-.689 2.952-1.205 5.019-3.96 5.483-7.145.337-1.506.168-3.013-.38-4.605zm-19.02 2.238c-2.277-2.927-3.753-5.682-4.26-8.006-.21-.99-.253-1.851-.126-2.626a4.228 4.228 0 0 1 .675-1.808c.8-1.162 2.15-1.894 3.71-1.894 1.561 0 2.953.69 3.712 1.894.337.517.59 1.12.675 1.808.126.775.084 1.679-.127 2.626-.506 2.281-1.982 5.036-4.26 8.006zm16.827 2.023c-.295 2.238-1.771 4.175-3.838 5.036-1.012.43-2.108.56-3.205.43-1.054-.129-2.109-.473-3.205-1.119-1.518-.86-3.037-2.195-4.808-4.175 2.784-3.486 4.47-6.672 5.103-9.512.295-1.335.337-2.54.211-3.66a7.067 7.067 0 0 0-1.139-2.926c-1.307-1.937-3.5-3.056-5.946-3.056-2.446 0-4.64 1.162-5.946 3.056-.591.86-.97 1.85-1.14 2.927a9.116 9.116 0 0 0 .212 3.659c.632 2.84 2.361 6.069 5.103 9.555-1.73 1.98-3.29 3.314-4.808 4.175-1.097.646-2.151.99-3.205 1.12a6.62 6.62 0 0 1-3.205-.431c-2.067-.861-3.543-2.798-3.838-5.036a7.263 7.263 0 0 1 .38-3.358c.126-.43.337-.86.548-1.377.295-.689.632-1.42.97-2.152l.042-.086a474.569 474.569 0 0 1 9.278-19.326l.126-.259c.338-.645.675-1.334 1.012-1.98.338-.688.717-1.334 1.181-1.894.886-1.033 2.067-1.592 3.374-1.592 1.308 0 2.489.56 3.374 1.592.464.56.844 1.206 1.18 1.894.338.646.676 1.335 1.013 1.98l.127.259a576.111 576.111 0 0 1 9.236 19.369v.043c.337.689.632 1.463.97 2.152.21.517.421.947.548 1.378.337 1.119.464 2.195.295 3.314z"/>
</svg>
