<svg xmlns="http://www.w3.org/2000/svg" width="37" height="46" fill="none" viewBox="0 0 37 46">
  <g opacity=".8">
    <path fill="none" d="M0 0h37v45.441H0z"/>
    <path fill="#C6D0EB" fill-rule="evenodd" d="M27.547 0c.29 2.66-.777 5.334-2.364 7.255-1.587 1.922-4.191 3.415-6.74 3.218-.348-2.608.94-5.329 2.41-7.03C22.493 1.525 25.259.093 27.547 0zm9.444 33.331c-.27-.109-6.027-2.437-6.09-9.19-.05-5.631 4.503-8.398 4.892-8.634l.019-.012c-2.67-3.909-6.83-4.446-8.31-4.507-2.166-.22-4.266.608-5.98 1.285-1.09.43-2.023.798-2.72.798-.777 0-1.736-.38-2.813-.808-1.41-.56-3.022-1.198-4.686-1.167-3.859.056-7.414 2.243-9.403 5.696-4.004 6.952-1.022 17.253 2.88 22.894 1.91 2.758 4.186 5.865 7.175 5.752 1.338-.053 2.288-.458 3.271-.877 1.134-.483 2.311-.984 4.174-.984 1.78 0 2.904.487 3.986.955 1.033.447 2.027.877 3.513.85 3.097-.057 5.062-2.816 6.956-5.584 2.191-3.202 3.095-6.301 3.145-6.463l-.01-.004z" clip-rule="evenodd"/>
  </g>
</svg>
